<svg width="36" height="36" viewBox="0 0 36 36" fill="none" xmlns="http://www.w3.org/2000/svg">
<path fill-rule="evenodd" clip-rule="evenodd" d="M29.4872 18.9421C26.9311 19.609 24.557 20.6691 22.1435 21.6431C21.5818 21.8697 21.0446 22.1475 20.4729 22.3501C19.9372 22.5399 19.2667 23.2125 18.8793 22.7135C18.6094 22.3661 19.5269 21.8963 19.9702 21.5459C22.4577 19.5767 24.9688 17.6309 27.4792 15.6854C28.0877 15.214 28.6722 14.7303 29.0791 14.1013C29.4395 13.5453 29.5875 12.982 29.1411 12.4007C28.6549 11.7674 27.9525 11.6395 27.1815 11.7974C26.6442 11.9073 26.1254 12.0975 25.6081 12.2747C23.1878 13.1032 20.8592 14.1126 18.526 15.115C18.273 15.224 17.9682 15.4538 17.7354 15.1404C17.6922 15.0821 17.9708 14.7869 18.1498 14.6517C19.9826 13.2675 21.8217 11.8896 23.6672 10.5188C24.6208 9.81088 25.524 9.056 26.1318 8.08458C26.9453 6.78336 26.1266 5.61838 24.4417 5.67435C23.4495 5.70766 22.5038 5.99583 21.5661 6.269C19.0411 7.00589 16.6257 7.97664 14.2336 9.0007C13.8311 9.17326 13.2661 9.68695 12.9478 9.23323C12.7267 8.91708 13.4257 8.5463 13.7887 8.27979C15.3106 7.16346 16.8678 6.08444 18.3965 4.9751C19.1124 4.45541 19.8185 3.92073 20.483 3.35007C21.0086 2.89768 21.2312 2.31402 20.8584 1.70106C20.4928 1.10075 19.8471 0.932515 19.1169 1.02279C18.6897 1.07576 18.2621 1.14106 17.8443 1.23567C14.2486 2.04985 10.7768 3.17418 7.40638 4.55135C7.35007 4.57434 7.29188 4.594 7.23932 4.62265C6.52304 5.01674 5.46814 5.32856 5.99296 6.30864C6.43707 7.13781 7.38197 6.83366 8.1343 6.6018C9.47376 6.18904 10.7896 5.71566 12.1181 5.27526C12.4151 5.17698 12.7954 5.11402 12.9651 5.3682C13.1393 5.62838 12.8697 5.88756 12.6418 6.07145C11.5456 6.95492 10.46 7.84939 9.33298 8.70021C7.68268 9.94513 6.2092 11.3463 4.71657 12.7321C4.69442 12.7831 4.67752 12.8364 4.65012 12.8854C4.18236 13.7165 3.49311 14.5984 4.57879 15.3975C5.57701 16.1311 6.58085 15.5944 7.46907 15.1027C10.7081 13.3088 14.0038 11.6105 17.4794 10.2013C17.8709 10.0424 18.2576 9.86985 18.6623 9.74392C18.9712 9.64765 19.3763 9.3335 19.6034 9.74725C19.7566 10.0264 19.3421 10.1986 19.1113 10.3619C16.1808 12.4416 13.1828 14.4504 10.5707 16.8627C9.37202 17.97 8.27995 19.1516 7.41839 20.4878C6.96602 21.1884 6.74115 21.9306 7.46532 22.6092C8.17371 23.2735 9.04053 23.1892 9.84767 22.8248C10.7761 22.405 11.6594 21.9013 12.542 21.4053C13.9956 20.5878 15.3508 19.6327 16.8904 18.9348C17.3149 18.8395 17.497 18.9541 17.3487 19.3545C15.8291 20.5538 14.3098 21.7537 12.7901 22.9524C11.4484 24.0101 10.1709 25.1227 9.21247 26.4833C8.63021 27.3091 8.29197 28.1842 9.03753 29.0864C9.67498 29.8569 10.6567 30.0065 12.0547 29.5158C13.7812 28.9101 15.3463 28.0267 16.932 27.1822C19.3632 25.8869 21.7756 24.5624 24.3062 23.4228C24.5682 23.3052 24.9226 23.0716 25.1358 23.3165C25.36 23.573 24.9906 23.7929 24.7905 23.9734C22.6307 25.9273 20.4087 27.8291 18.4457 29.9479C17.8585 30.5815 17.2598 31.2121 16.7481 31.8927C16.0517 32.8185 15.8426 33.8079 16.578 34.8193C16.578 34.8193 16.7509 35 16.932 35C17.1132 35 17.3183 34.8193 17.3183 34.8193C21.5792 31.0089 25.8412 27.1995 30.0988 23.3864C30.7069 22.8418 31.3252 22.3024 31.7551 21.6225C32.2063 20.9093 32.4064 20.1767 31.8193 19.4595C31.2201 18.7276 30.3829 18.7082 29.4872 18.9421Z" fill="black"/>
</svg>
